<svg width="22" height="22" viewBox="0 0 22 22" fill="none" xmlns="http://www.w3.org/2000/svg">
<circle cx="10.5873" cy="10.8324" r="10.4477" fill="#23262F"/>
<path d="M8.0347 8.51559C8.06953 7.81908 8.31331 7.28276 8.76604 6.90665C9.22574 6.52357 9.82822 6.33203 10.5735 6.33203C11.0819 6.33203 11.5173 6.42257 11.8794 6.60367C12.2416 6.77779 12.5133 7.01809 12.6944 7.32456C12.8824 7.62405 12.9764 7.96534 12.9764 8.34843C12.9764 8.78723 12.8615 9.15986 12.6317 9.46632C12.4088 9.76582 12.1406 9.96781 11.8272 10.0723V10.1141C12.2312 10.2395 12.5446 10.4623 12.7675 10.7827C12.9973 11.1031 13.1123 11.5141 13.1123 12.0156C13.1123 12.4335 13.0147 12.8061 12.8197 13.1334C12.6317 13.4608 12.3496 13.7185 11.9735 13.9066C11.6043 14.0877 11.1586 14.1782 10.6362 14.1782C9.84911 14.1782 9.20832 13.9797 8.7138 13.5827C8.21928 13.1857 7.95809 12.6006 7.93023 11.8275H9.35111C9.36504 12.1688 9.47996 12.4439 9.69588 12.6529C9.91876 12.8548 10.2217 12.9558 10.6048 12.9558C10.96 12.9558 11.2317 12.8583 11.4197 12.6633C11.6148 12.4613 11.7123 12.2036 11.7123 11.8902C11.7123 11.4723 11.5799 11.1728 11.3153 10.9917C11.0506 10.8106 10.6397 10.72 10.0824 10.72H9.77946V9.51856H10.0824C11.0715 9.51856 11.566 9.18772 11.566 8.52604C11.566 8.22654 11.4755 7.9932 11.2944 7.82604C11.1202 7.65888 10.866 7.5753 10.5317 7.5753C10.2043 7.5753 9.95011 7.66585 9.76901 7.84694C9.59489 8.02107 9.49389 8.24395 9.46603 8.51559H8.0347Z" fill="#FCFCFD"/>
</svg>
