<svg width="22" height="22" viewBox="0 0 22 22" fill="none" xmlns="http://www.w3.org/2000/svg">
<circle cx="10.5873" cy="11.3871" r="10.4477" fill="#23262F"/>
<path d="M8.60104 13.0299C9.26969 12.4727 9.80252 12.0095 10.1995 11.6404C10.5965 11.2643 10.9274 10.8742 11.1921 10.4703C11.4567 10.0663 11.5891 9.66927 11.5891 9.27923C11.5891 8.92401 11.5055 8.6454 11.3383 8.44342C11.1712 8.24143 10.9135 8.14043 10.5652 8.14043C10.2169 8.14043 9.94879 8.25884 9.76073 8.49565C9.57267 8.7255 9.47516 9.04241 9.46819 9.44639H8.04731C8.07517 8.61058 8.32244 7.97675 8.7891 7.54492C9.26272 7.11308 9.86172 6.89716 10.5861 6.89716C11.3801 6.89716 11.9896 7.1096 12.4144 7.53447C12.8393 7.95238 13.0517 8.5061 13.0517 9.19565C13.0517 9.73892 12.9055 10.2578 12.6129 10.7523C12.3204 11.2469 11.9861 11.6787 11.61 12.0479C11.2338 12.41 10.7428 12.8488 10.1368 13.3643H13.2189V14.5762H8.05776V13.4896L8.60104 13.0299Z" fill="#FCFCFD"/>
</svg>
