<svg width="24" height="24" viewBox="0 0 24 24" fill="none" xmlns="http://www.w3.org/2000/svg">
<circle cx="12.1479" cy="12.1499" r="11.7495" fill="white"/>
<path fill-rule="evenodd" clip-rule="evenodd" d="M12.1498 2.11816C6.60905 2.11816 2.11719 6.61002 2.11719 12.1507C2.11719 17.6915 6.60905 22.1833 12.1498 22.1833C17.6905 22.1833 22.1824 17.6915 22.1824 12.1507C22.1824 6.61002 17.6905 2.11816 12.1498 2.11816ZM16.4984 10.4543C16.5785 10.3628 16.6395 10.2562 16.6777 10.1407C16.716 10.0253 16.7308 9.90337 16.7212 9.78213C16.7117 9.66089 16.678 9.54279 16.6221 9.43477C16.5662 9.32675 16.4893 9.231 16.3959 9.15314C16.3024 9.07528 16.1944 9.0169 16.0781 8.98142C15.9617 8.94594 15.8395 8.93408 15.7185 8.94655C15.5976 8.95901 15.4803 8.99554 15.3736 9.05399C15.267 9.11244 15.1731 9.19163 15.0975 9.2869L11.1757 13.9922L9.14638 11.962C8.97436 11.7958 8.74398 11.7039 8.50484 11.706C8.2657 11.708 8.03695 11.804 7.86785 11.9731C7.69874 12.1422 7.60282 12.3709 7.60075 12.6101C7.59867 12.8492 7.6906 13.0796 7.85674 13.2516L10.5929 15.9878C10.6825 16.0773 10.7898 16.1472 10.9079 16.193C11.0261 16.2388 11.1524 16.2595 11.279 16.2538C11.4056 16.248 11.5296 16.2159 11.643 16.1596C11.7565 16.1033 11.857 16.024 11.9382 15.9266L16.4984 10.4543Z" fill="#007AFF"/>
</svg>
