<svg width="22" height="22" viewBox="0 0 22 22" fill="none" xmlns="http://www.w3.org/2000/svg">
<circle cx="11.2902" cy="10.6271" r="10.5627" fill="white"/>
<path d="M9.06711 13.4067C9.3283 13.1993 9.44737 13.1033 9.42432 13.1186C10.1772 12.4964 10.7687 11.9855 11.1989 11.5861C11.6367 11.1866 12.0055 10.768 12.3051 10.3301C12.6047 9.89221 12.7545 9.46586 12.7545 9.05104C12.7545 8.73608 12.6815 8.49026 12.5355 8.31357C12.3896 8.13689 12.1706 8.04854 11.8787 8.04854C11.5868 8.04854 11.3563 8.15993 11.1873 8.38271C11.026 8.5978 10.9453 8.90508 10.9453 9.30454H9.04406C9.05943 8.65158 9.1977 8.10616 9.45889 7.66829C9.72776 7.23042 10.0773 6.90777 10.5075 6.70036C10.9453 6.49295 11.4293 6.38924 11.9594 6.38924C12.8735 6.38924 13.5611 6.62354 14.022 7.09214C14.4906 7.56074 14.7249 8.17146 14.7249 8.92429C14.7249 9.74626 14.4445 10.5106 13.8837 11.2174C13.3229 11.9164 12.6085 12.6001 11.7404 13.2684H14.8516V14.8701H9.06711V13.4067Z" fill="#141416"/>
</svg>
